<svg xmlns="http://www.w3.org/2000/svg" xmlns:xlink="http://www.w3.org/1999/xlink" viewBox="0 0 2084.6 1006.9"><defs><style>.cls-1{fill:url(#linear-gradient);}.cls-2{fill:url(#linear-gradient-2);}</style><linearGradient id="linear-gradient" x1="2332.68" y1="503.4" x2="1042.3" y2="503.4" gradientUnits="userSpaceOnUse"><stop offset="0" stop-color="#6156f9"/><stop offset="1" stop-color="#1a129f"/></linearGradient><linearGradient id="linear-gradient-2" x1="2316.59" y1="572.1" x2="1035.12" y2="572.1" xlink:href="#linear-gradient"/></defs><g id="Layer_2" data-name="Layer 2"><g id="Layer_1-2" data-name="Layer 1"><path class="cls-1" d="M2084.6,776.4c-.89,1.28-5.82,7.32-14.4,17.68l-7,8.44c-11.45,13.77-27.25,32.67-46.9,56.08-7.4,8.8-15.3,18.3-23.8,28.3-24.7,29.4-53.8,63.9-86.6,102.8l-.08.1q-7,8.36-14.32,17H0V578.7c42.8-24.5,82.7-54.6,120.4-88.2l.94-.84C333.26,300.81,477.63,4.68,682.05.05c1.62,0,3.23,0,4.85,0,1.44,0,2.88,0,4.33.05C763.79,1.5,844,39.74,937.4,132.2q27,26.7,53.4,49.6,5.9,5.13,11.78,10.07C1167.49,330.65,1316.46,365,1449.7,371.7q20.47,1,40.46,1.28c184.27,2.72,336.7-34.26,457.76,108.63q4.11,4.86,8.18,10a469,469,0,0,1,36.5,53.7c8.1,13.8,16,28.6,23.8,44.6,16.25,33.71,31.87,72.43,46.8,116.94q3.53,10.51,7,21.46Q2077.52,751.36,2084.6,776.4Z"/><path class="cls-2" d="M2070.2,515.1V982.9c-2.3,2.3-4.7,4.6-7,6.9l-17.4,17.1H0V449.5c35.8,8.07,76.15,21.26,121.34,40.16l2.26.94q35.1,14.7,74.2,34.3c395.94,198,595.28-185.44,804.78-333q7.35-5.19,14.72-10c42.4-27.5,85.4-44.6,130.7-44.6,62.9,0,130.2,32.9,206.6,116.7,45.5,49.9,90.1,88.3,133.8,117.8l1.76,1.18c172.67,116.12,329.42,95.1,457.76,108.63a446.29,446.29,0,0,1,60.38,10.09,281,281,0,0,1,37.4,12q8.92,3.51,17.5,7.77Q2066.74,513.21,2070.2,515.1Z"/></g></g></svg>